<svg width="80" height="80" viewBox="0 0 80 80" fill="none" xmlns="http://www.w3.org/2000/svg">
<rect width="80" height="80" fill="white"/>
<rect width="80" height="80" fill="white"/>
<path d="M3.99967 28H1.33301V30.6667H3.99967V28Z" fill="black"/>
<path d="M3.99967 38.667H1.33301V41.3337H3.99967V38.667Z" fill="black"/>
<path d="M3.99967 41.3335H1.33301V44.0002H3.99967V41.3335Z" fill="black"/>
<path d="M3.99967 49.3335H1.33301V52.0002H3.99967V49.3335Z" fill="black"/>
<path d="M3.99967 52H1.33301V54.6667H3.99967V52Z" fill="black"/>
<path d="M6.66667 33.3335H4V36.0002H6.66667V33.3335Z" fill="black"/>
<path d="M6.66667 49.3335H4V52.0002H6.66667V49.3335Z" fill="black"/>
<path d="M6.66667 52H4V54.6667H6.66667V52Z" fill="black"/>
<path d="M9.33268 25.3335H6.66602V28.0002H9.33268V25.3335Z" fill="black"/>
<path d="M9.33268 28H6.66602V30.6667H9.33268V28Z" fill="black"/>
<path d="M9.33268 33.3335H6.66602V36.0002H9.33268V33.3335Z" fill="black"/>
<path d="M9.33268 36H6.66602V38.6667H9.33268V36Z" fill="black"/>
<path d="M9.33268 38.667H6.66602V41.3337H9.33268V38.667Z" fill="black"/>
<path d="M9.33268 41.3335H6.66602V44.0002H9.33268V41.3335Z" fill="black"/>
<path d="M9.33268 44H6.66602V46.6667H9.33268V44Z" fill="black"/>
<path d="M9.33268 46.667H6.66602V49.3337H9.33268V46.667Z" fill="black"/>
<path d="M11.9997 22.667H9.33301V25.3337H11.9997V22.667Z" fill="black"/>
<path d="M11.9997 25.3335H9.33301V28.0002H11.9997V25.3335Z" fill="black"/>
<path d="M11.9997 28H9.33301V30.6667H11.9997V28Z" fill="black"/>
<path d="M11.9997 30.667H9.33301V33.3337H11.9997V30.667Z" fill="black"/>
<path d="M11.9997 44H9.33301V46.6667H11.9997V44Z" fill="black"/>
<path d="M11.9997 46.667H9.33301V49.3337H11.9997V46.667Z" fill="black"/>
<path d="M11.9997 49.3335H9.33301V52.0002H11.9997V49.3335Z" fill="black"/>
<path d="M11.9997 52H9.33301V54.6667H11.9997V52Z" fill="black"/>
<path d="M14.6667 30.667H12V33.3337H14.6667V30.667Z" fill="black"/>
<path d="M14.6667 36H12V38.6667H14.6667V36Z" fill="black"/>
<path d="M14.6667 41.3335H12V44.0002H14.6667V41.3335Z" fill="black"/>
<path d="M14.6667 46.667H12V49.3337H14.6667V46.667Z" fill="black"/>
<path d="M14.6667 54.667H12V57.3337H14.6667V54.667Z" fill="black"/>
<path d="M17.3327 22.667H14.666V25.3337H17.3327V22.667Z" fill="black"/>
<path d="M17.3327 25.3335H14.666V28.0002H17.3327V25.3335Z" fill="black"/>
<path d="M17.3327 36H14.666V38.6667H17.3327V36Z" fill="black"/>
<path d="M17.3327 44H14.666V46.6667H17.3327V44Z" fill="black"/>
<path d="M17.3327 54.667H14.666V57.3337H17.3327V54.667Z" fill="black"/>
<path d="M19.9997 22.667H17.333V25.3337H19.9997V22.667Z" fill="black"/>
<path d="M19.9997 28H17.333V30.6667H19.9997V28Z" fill="black"/>
<path d="M19.9997 33.3335H17.333V36.0002H19.9997V33.3335Z" fill="black"/>
<path d="M19.9997 38.667H17.333V41.3337H19.9997V38.667Z" fill="black"/>
<path d="M19.9997 44H17.333V46.6667H19.9997V44Z" fill="black"/>
<path d="M19.9997 49.3335H17.333V52.0002H19.9997V49.3335Z" fill="black"/>
<path d="M19.9997 54.667H17.333V57.3337H19.9997V54.667Z" fill="black"/>
<path d="M22.6667 22.667H20V25.3337H22.6667V22.667Z" fill="black"/>
<path d="M22.6667 25.3335H20V28.0002H22.6667V25.3335Z" fill="black"/>
<path d="M22.6667 30.667H20V33.3337H22.6667V30.667Z" fill="black"/>
<path d="M22.6667 33.3335H20V36.0002H22.6667V33.3335Z" fill="black"/>
<path d="M22.6667 36H20V38.6667H22.6667V36Z" fill="black"/>
<path d="M22.6667 41.3335H20V44.0002H22.6667V41.3335Z" fill="black"/>
<path d="M22.6667 44H20V46.6667H22.6667V44Z" fill="black"/>
<path d="M22.6667 49.3335H20V52.0002H22.6667V49.3335Z" fill="black"/>
<path d="M22.6667 54.667H20V57.3337H22.6667V54.667Z" fill="black"/>
<path d="M25.3327 4H22.666V6.66667H25.3327V4Z" fill="black"/>
<path d="M25.3327 6.66699H22.666V9.33366H25.3327V6.66699Z" fill="black"/>
<path d="M25.3327 17.3335H22.666V20.0002H25.3327V17.3335Z" fill="black"/>
<path d="M25.3327 30.667H22.666V33.3337H25.3327V30.667Z" fill="black"/>
<path d="M25.3327 41.3335H22.666V44.0002H25.3327V41.3335Z" fill="black"/>
<path d="M25.3327 44H22.666V46.6667H25.3327V44Z" fill="black"/>
<path d="M25.3327 46.667H22.666V49.3337H25.3327V46.667Z" fill="black"/>
<path d="M25.3327 49.3335H22.666V52.0002H25.3327V49.3335Z" fill="black"/>
<path d="M25.3327 52H22.666V54.6667H25.3327V52Z" fill="black"/>
<path d="M25.3327 54.667H22.666V57.3337H25.3327V54.667Z" fill="black"/>
<path d="M25.3327 60H22.666V62.6667H25.3327V60Z" fill="black"/>
<path d="M25.3327 62.667H22.666V65.3337H25.3327V62.667Z" fill="black"/>
<path d="M25.3327 68H22.666V70.6667H25.3327V68Z" fill="black"/>
<path d="M27.9997 1.3335H25.333V4.00016H27.9997V1.3335Z" fill="black"/>
<path d="M27.9997 4H25.333V6.66667H27.9997V4Z" fill="black"/>
<path d="M27.9997 6.66699H25.333V9.33366H27.9997V6.66699Z" fill="black"/>
<path d="M27.9997 12H25.333V14.6667H27.9997V12Z" fill="black"/>
<path d="M27.9997 20H25.333V22.6667H27.9997V20Z" fill="black"/>
<path d="M27.9997 22.667H25.333V25.3337H27.9997V22.667Z" fill="black"/>
<path d="M27.9997 25.3335H25.333V28.0002H27.9997V25.3335Z" fill="black"/>
<path d="M27.9997 30.667H25.333V33.3337H27.9997V30.667Z" fill="black"/>
<path d="M27.9997 33.3335H25.333V36.0002H27.9997V33.3335Z" fill="black"/>
<path d="M27.9997 41.3335H25.333V44.0002H27.9997V41.3335Z" fill="black"/>
<path d="M27.9997 44H25.333V46.6667H27.9997V44Z" fill="black"/>
<path d="M27.9997 49.3335H25.333V52.0002H27.9997V49.3335Z" fill="black"/>
<path d="M27.9997 57.3335H25.333V60.0002H27.9997V57.3335Z" fill="black"/>
<path d="M27.9997 62.667H25.333V65.3337H27.9997V62.667Z" fill="black"/>
<path d="M27.9997 68H25.333V70.6667H27.9997V68Z" fill="black"/>
<path d="M27.9997 70.667H25.333V73.3337H27.9997V70.667Z" fill="black"/>
<path d="M27.9997 73.3335H25.333V76.0002H27.9997V73.3335Z" fill="black"/>
<path d="M27.9997 76H25.333V78.6667H27.9997V76Z" fill="black"/>
<path d="M30.6667 6.66699H28V9.33366H30.6667V6.66699Z" fill="black"/>
<path d="M30.6667 9.3335H28V12.0002H30.6667V9.3335Z" fill="black"/>
<path d="M30.6667 12H28V14.6667H30.6667V12Z" fill="black"/>
<path d="M30.6667 17.3335H28V20.0002H30.6667V17.3335Z" fill="black"/>
<path d="M30.6667 25.3335H28V28.0002H30.6667V25.3335Z" fill="black"/>
<path d="M30.6667 30.667H28V33.3337H30.6667V30.667Z" fill="black"/>
<path d="M30.6667 33.3335H28V36.0002H30.6667V33.3335Z" fill="black"/>
<path d="M30.6667 41.3335H28V44.0002H30.6667V41.3335Z" fill="black"/>
<path d="M30.6667 44H28V46.6667H30.6667V44Z" fill="black"/>
<path d="M30.6667 46.667H28V49.3337H30.6667V46.667Z" fill="black"/>
<path d="M30.6667 49.3335H28V52.0002H30.6667V49.3335Z" fill="black"/>
<path d="M30.6667 52H28V54.6667H30.6667V52Z" fill="black"/>
<path d="M30.6667 54.667H28V57.3337H30.6667V54.667Z" fill="black"/>
<path d="M30.6667 57.3335H28V60.0002H30.6667V57.3335Z" fill="black"/>
<path d="M30.6667 65.3335H28V68.0002H30.6667V65.3335Z" fill="black"/>
<path d="M30.6667 76H28V78.6667H30.6667V76Z" fill="black"/>
<path d="M33.3327 4H30.666V6.66667H33.3327V4Z" fill="black"/>
<path d="M33.3327 9.3335H30.666V12.0002H33.3327V9.3335Z" fill="black"/>
<path d="M33.3327 20H30.666V22.6667H33.3327V20Z" fill="black"/>
<path d="M33.3327 28H30.666V30.6667H33.3327V28Z" fill="black"/>
<path d="M33.3327 33.3335H30.666V36.0002H33.3327V33.3335Z" fill="black"/>
<path d="M33.3327 36H30.666V38.6667H33.3327V36Z" fill="black"/>
<path d="M33.3327 49.3335H30.666V52.0002H33.3327V49.3335Z" fill="black"/>
<path d="M33.3327 54.667H30.666V57.3337H33.3327V54.667Z" fill="black"/>
<path d="M33.3327 60H30.666V62.6667H33.3327V60Z" fill="black"/>
<path d="M33.3327 65.3335H30.666V68.0002H33.3327V65.3335Z" fill="black"/>
<path d="M33.3327 68H30.666V70.6667H33.3327V68Z" fill="black"/>
<path d="M35.9997 6.66699H33.333V9.33366H35.9997V6.66699Z" fill="black"/>
<path d="M35.9997 9.3335H33.333V12.0002H35.9997V9.3335Z" fill="black"/>
<path d="M35.9997 14.667H33.333V17.3337H35.9997V14.667Z" fill="black"/>
<path d="M35.9997 17.3335H33.333V20.0002H35.9997V17.3335Z" fill="black"/>
<path d="M35.9997 22.667H33.333V25.3337H35.9997V22.667Z" fill="black"/>
<path d="M35.9997 25.3335H33.333V28.0002H35.9997V25.3335Z" fill="black"/>
<path d="M35.9997 28H33.333V30.6667H35.9997V28Z" fill="black"/>
<path d="M35.9997 30.667H33.333V33.3337H35.9997V30.667Z" fill="black"/>
<path d="M35.9997 36H33.333V38.6667H35.9997V36Z" fill="black"/>
<path d="M35.9997 38.667H33.333V41.3337H35.9997V38.667Z" fill="black"/>
<path d="M35.9997 41.3335H33.333V44.0002H35.9997V41.3335Z" fill="black"/>
<path d="M35.9997 52H33.333V54.6667H35.9997V52Z" fill="black"/>
<path d="M35.9997 54.667H33.333V57.3337H35.9997V54.667Z" fill="black"/>
<path d="M35.9997 57.3335H33.333V60.0002H35.9997V57.3335Z" fill="black"/>
<path d="M35.9997 60H33.333V62.6667H35.9997V60Z" fill="black"/>
<path d="M35.9997 70.667H33.333V73.3337H35.9997V70.667Z" fill="black"/>
<path d="M35.9997 73.3335H33.333V76.0002H35.9997V73.3335Z" fill="black"/>
<path d="M38.6667 1.3335H36V4.00016H38.6667V1.3335Z" fill="black"/>
<path d="M38.6667 6.66699H36V9.33366H38.6667V6.66699Z" fill="black"/>
<path d="M38.6667 12H36V14.6667H38.6667V12Z" fill="black"/>
<path d="M38.6667 14.667H36V17.3337H38.6667V14.667Z" fill="black"/>
<path d="M38.6667 33.3335H36V36.0002H38.6667V33.3335Z" fill="black"/>
<path d="M38.6667 36H36V38.6667H38.6667V36Z" fill="black"/>
<path d="M38.6667 38.667H36V41.3337H38.6667V38.667Z" fill="black"/>
<path d="M38.6667 44H36V46.6667H38.6667V44Z" fill="black"/>
<path d="M38.6667 46.667H36V49.3337H38.6667V46.667Z" fill="black"/>
<path d="M38.6667 49.3335H36V52.0002H38.6667V49.3335Z" fill="black"/>
<path d="M38.6667 52H36V54.6667H38.6667V52Z" fill="black"/>
<path d="M38.6667 54.667H36V57.3337H38.6667V54.667Z" fill="black"/>
<path d="M38.6667 60H36V62.6667H38.6667V60Z" fill="black"/>
<path d="M38.6667 68H36V70.6667H38.6667V68Z" fill="black"/>
<path d="M38.6667 76H36V78.6667H38.6667V76Z" fill="black"/>
<path d="M41.3327 1.3335H38.666V4.00016H41.3327V1.3335Z" fill="black"/>
<path d="M41.3327 4H38.666V6.66667H41.3327V4Z" fill="black"/>
<path d="M41.3327 14.667H38.666V17.3337H41.3327V14.667Z" fill="black"/>
<path d="M41.3327 17.3335H38.666V20.0002H41.3327V17.3335Z" fill="black"/>
<path d="M41.3327 33.3335H38.666V36.0002H41.3327V33.3335Z" fill="black"/>
<path d="M41.3327 36H38.666V38.6667H41.3327V36Z" fill="black"/>
<path d="M41.3327 41.3335H38.666V44.0002H41.3327V41.3335Z" fill="black"/>
<path d="M41.3327 44H38.666V46.6667H41.3327V44Z" fill="black"/>
<path d="M41.3327 52H38.666V54.6667H41.3327V52Z" fill="black"/>
<path d="M41.3327 60H38.666V62.6667H41.3327V60Z" fill="black"/>
<path d="M41.3327 68H38.666V70.6667H41.3327V68Z" fill="black"/>
<path d="M41.3327 70.667H38.666V73.3337H41.3327V70.667Z" fill="black"/>
<path d="M41.3327 73.3335H38.666V76.0002H41.3327V73.3335Z" fill="black"/>
<path d="M41.3327 76H38.666V78.6667H41.3327V76Z" fill="black"/>
<path d="M43.9997 1.3335H41.333V4.00016H43.9997V1.3335Z" fill="black"/>
<path d="M43.9997 9.3335H41.333V12.0002H43.9997V9.3335Z" fill="black"/>
<path d="M43.9997 12H41.333V14.6667H43.9997V12Z" fill="black"/>
<path d="M43.9997 14.667H41.333V17.3337H43.9997V14.667Z" fill="black"/>
<path d="M43.9997 20H41.333V22.6667H43.9997V20Z" fill="black"/>
<path d="M43.9997 22.667H41.333V25.3337H43.9997V22.667Z" fill="black"/>
<path d="M43.9997 25.3335H41.333V28.0002H43.9997V25.3335Z" fill="black"/>
<path d="M43.9997 28H41.333V30.6667H43.9997V28Z" fill="black"/>
<path d="M43.9997 41.3335H41.333V44.0002H43.9997V41.3335Z" fill="black"/>
<path d="M43.9997 46.667H41.333V49.3337H43.9997V46.667Z" fill="black"/>
<path d="M43.9997 54.667H41.333V57.3337H43.9997V54.667Z" fill="black"/>
<path d="M43.9997 57.3335H41.333V60.0002H43.9997V57.3335Z" fill="black"/>
<path d="M43.9997 60H41.333V62.6667H43.9997V60Z" fill="black"/>
<path d="M43.9997 68H41.333V70.6667H43.9997V68Z" fill="black"/>
<path d="M43.9997 73.3335H41.333V76.0002H43.9997V73.3335Z" fill="black"/>
<path d="M46.6667 6.66699H44V9.33366H46.6667V6.66699Z" fill="black"/>
<path d="M46.6667 9.3335H44V12.0002H46.6667V9.3335Z" fill="black"/>
<path d="M46.6667 17.3335H44V20.0002H46.6667V17.3335Z" fill="black"/>
<path d="M46.6667 25.3335H44V28.0002H46.6667V25.3335Z" fill="black"/>
<path d="M46.6667 28H44V30.6667H46.6667V28Z" fill="black"/>
<path d="M46.6667 33.3335H44V36.0002H46.6667V33.3335Z" fill="black"/>
<path d="M46.6667 46.667H44V49.3337H46.6667V46.667Z" fill="black"/>
<path d="M46.6667 60H44V62.6667H46.6667V60Z" fill="black"/>
<path d="M46.6667 62.667H44V65.3337H46.6667V62.667Z" fill="black"/>
<path d="M49.3327 12H46.666V14.6667H49.3327V12Z" fill="black"/>
<path d="M49.3327 28H46.666V30.6667H49.3327V28Z" fill="black"/>
<path d="M49.3327 33.3335H46.666V36.0002H49.3327V33.3335Z" fill="black"/>
<path d="M49.3327 38.667H46.666V41.3337H49.3327V38.667Z" fill="black"/>
<path d="M49.3327 52H46.666V54.6667H49.3327V52Z" fill="black"/>
<path d="M49.3327 54.667H46.666V57.3337H49.3327V54.667Z" fill="black"/>
<path d="M49.3327 62.667H46.666V65.3337H49.3327V62.667Z" fill="black"/>
<path d="M49.3327 70.667H46.666V73.3337H49.3327V70.667Z" fill="black"/>
<path d="M49.3327 76H46.666V78.6667H49.3327V76Z" fill="black"/>
<path d="M51.9997 1.3335H49.333V4.00016H51.9997V1.3335Z" fill="black"/>
<path d="M51.9997 4H49.333V6.66667H51.9997V4Z" fill="black"/>
<path d="M51.9997 12H49.333V14.6667H51.9997V12Z" fill="black"/>
<path d="M51.9997 14.667H49.333V17.3337H51.9997V14.667Z" fill="black"/>
<path d="M51.9997 17.3335H49.333V20.0002H51.9997V17.3335Z" fill="black"/>
<path d="M51.9997 22.667H49.333V25.3337H51.9997V22.667Z" fill="black"/>
<path d="M51.9997 30.667H49.333V33.3337H51.9997V30.667Z" fill="black"/>
<path d="M51.9997 33.3335H49.333V36.0002H51.9997V33.3335Z" fill="black"/>
<path d="M51.9997 38.667H49.333V41.3337H51.9997V38.667Z" fill="black"/>
<path d="M51.9997 41.3335H49.333V44.0002H51.9997V41.3335Z" fill="black"/>
<path d="M51.9997 49.3335H49.333V52.0002H51.9997V49.3335Z" fill="black"/>
<path d="M51.9997 52H49.333V54.6667H51.9997V52Z" fill="black"/>
<path d="M51.9997 65.3335H49.333V68.0002H51.9997V65.3335Z" fill="black"/>
<path d="M51.9997 68H49.333V70.6667H51.9997V68Z" fill="black"/>
<path d="M51.9997 70.667H49.333V73.3337H51.9997V70.667Z" fill="black"/>
<path d="M51.9997 76H49.333V78.6667H51.9997V76Z" fill="black"/>
<path d="M54.6667 14.667H52V17.3337H54.6667V14.667Z" fill="black"/>
<path d="M54.6667 22.667H52V25.3337H54.6667V22.667Z" fill="black"/>
<path d="M54.6667 25.3335H52V28.0002H54.6667V25.3335Z" fill="black"/>
<path d="M54.6667 28H52V30.6667H54.6667V28Z" fill="black"/>
<path d="M54.6667 30.667H52V33.3337H54.6667V30.667Z" fill="black"/>
<path d="M54.6667 33.3335H52V36.0002H54.6667V33.3335Z" fill="black"/>
<path d="M54.6667 36H52V38.6667H54.6667V36Z" fill="black"/>
<path d="M54.6667 57.3335H52V60.0002H54.6667V57.3335Z" fill="black"/>
<path d="M54.6667 60H52V62.6667H54.6667V60Z" fill="black"/>
<path d="M54.6667 62.667H52V65.3337H54.6667V62.667Z" fill="black"/>
<path d="M54.6667 68H52V70.6667H54.6667V68Z" fill="black"/>
<path d="M54.6667 76H52V78.6667H54.6667V76Z" fill="black"/>
<path d="M57.3327 1.3335H54.666V4.00016H57.3327V1.3335Z" fill="black"/>
<path d="M57.3327 4H54.666V6.66667H57.3327V4Z" fill="black"/>
<path d="M57.3327 6.66699H54.666V9.33366H57.3327V6.66699Z" fill="black"/>
<path d="M57.3327 9.3335H54.666V12.0002H57.3327V9.3335Z" fill="black"/>
<path d="M57.3327 17.3335H54.666V20.0002H57.3327V17.3335Z" fill="black"/>
<path d="M57.3327 25.3335H54.666V28.0002H57.3327V25.3335Z" fill="black"/>
<path d="M57.3327 30.667H54.666V33.3337H57.3327V30.667Z" fill="black"/>
<path d="M57.3327 33.3335H54.666V36.0002H57.3327V33.3335Z" fill="black"/>
<path d="M57.3327 36H54.666V38.6667H57.3327V36Z" fill="black"/>
<path d="M57.3327 41.3335H54.666V44.0002H57.3327V41.3335Z" fill="black"/>
<path d="M57.3327 44H54.666V46.6667H57.3327V44Z" fill="black"/>
<path d="M57.3327 49.3335H54.666V52.0002H57.3327V49.3335Z" fill="black"/>
<path d="M57.3327 52H54.666V54.6667H57.3327V52Z" fill="black"/>
<path d="M57.3327 54.667H54.666V57.3337H57.3327V54.667Z" fill="black"/>
<path d="M57.3327 57.3335H54.666V60.0002H57.3327V57.3335Z" fill="black"/>
<path d="M57.3327 60H54.666V62.6667H57.3327V60Z" fill="black"/>
<path d="M57.3327 62.667H54.666V65.3337H57.3327V62.667Z" fill="black"/>
<path d="M57.3327 65.3335H54.666V68.0002H57.3327V65.3335Z" fill="black"/>
<path d="M57.3327 68H54.666V70.6667H57.3327V68Z" fill="black"/>
<path d="M57.3327 73.3335H54.666V76.0002H57.3327V73.3335Z" fill="black"/>
<path d="M59.9997 22.667H57.333V25.3337H59.9997V22.667Z" fill="black"/>
<path d="M59.9997 25.3335H57.333V28.0002H59.9997V25.3335Z" fill="black"/>
<path d="M59.9997 28H57.333V30.6667H59.9997V28Z" fill="black"/>
<path d="M59.9997 36H57.333V38.6667H59.9997V36Z" fill="black"/>
<path d="M59.9997 41.3335H57.333V44.0002H59.9997V41.3335Z" fill="black"/>
<path d="M59.9997 44H57.333V46.6667H59.9997V44Z" fill="black"/>
<path d="M59.9997 54.667H57.333V57.3337H59.9997V54.667Z" fill="black"/>
<path d="M59.9997 65.3335H57.333V68.0002H59.9997V65.3335Z" fill="black"/>
<path d="M59.9997 68H57.333V70.6667H59.9997V68Z" fill="black"/>
<path d="M59.9997 76H57.333V78.6667H59.9997V76Z" fill="black"/>
<path d="M62.6667 28H60V30.6667H62.6667V28Z" fill="black"/>
<path d="M62.6667 30.667H60V33.3337H62.6667V30.667Z" fill="black"/>
<path d="M62.6667 41.3335H60V44.0002H62.6667V41.3335Z" fill="black"/>
<path d="M62.6667 46.667H60V49.3337H62.6667V46.667Z" fill="black"/>
<path d="M62.6667 49.3335H60V52.0002H62.6667V49.3335Z" fill="black"/>
<path d="M62.6667 54.667H60V57.3337H62.6667V54.667Z" fill="black"/>
<path d="M62.6667 60H60V62.6667H62.6667V60Z" fill="black"/>
<path d="M62.6667 65.3335H60V68.0002H62.6667V65.3335Z" fill="black"/>
<path d="M62.6667 68H60V70.6667H62.6667V68Z" fill="black"/>
<path d="M62.6667 70.667H60V73.3337H62.6667V70.667Z" fill="black"/>
<path d="M62.6667 76H60V78.6667H62.6667V76Z" fill="black"/>
<path d="M65.3327 25.3335H62.666V28.0002H65.3327V25.3335Z" fill="black"/>
<path d="M65.3327 28H62.666V30.6667H65.3327V28Z" fill="black"/>
<path d="M65.3327 33.3335H62.666V36.0002H65.3327V33.3335Z" fill="black"/>
<path d="M65.3327 41.3335H62.666V44.0002H65.3327V41.3335Z" fill="black"/>
<path d="M65.3327 49.3335H62.666V52.0002H65.3327V49.3335Z" fill="black"/>
<path d="M65.3327 52H62.666V54.6667H65.3327V52Z" fill="black"/>
<path d="M65.3327 54.667H62.666V57.3337H65.3327V54.667Z" fill="black"/>
<path d="M65.3327 65.3335H62.666V68.0002H65.3327V65.3335Z" fill="black"/>
<path d="M65.3327 68H62.666V70.6667H65.3327V68Z" fill="black"/>
<path d="M65.3327 73.3335H62.666V76.0002H65.3327V73.3335Z" fill="black"/>
<path d="M65.3327 76H62.666V78.6667H65.3327V76Z" fill="black"/>
<path d="M67.9997 36H65.333V38.6667H67.9997V36Z" fill="black"/>
<path d="M67.9997 41.3335H65.333V44.0002H67.9997V41.3335Z" fill="black"/>
<path d="M67.9997 44H65.333V46.6667H67.9997V44Z" fill="black"/>
<path d="M67.9997 46.667H65.333V49.3337H67.9997V46.667Z" fill="black"/>
<path d="M67.9997 49.3335H65.333V52.0002H67.9997V49.3335Z" fill="black"/>
<path d="M67.9997 52H65.333V54.6667H67.9997V52Z" fill="black"/>
<path d="M67.9997 54.667H65.333V57.3337H67.9997V54.667Z" fill="black"/>
<path d="M67.9997 57.3335H65.333V60.0002H67.9997V57.3335Z" fill="black"/>
<path d="M67.9997 60H65.333V62.6667H67.9997V60Z" fill="black"/>
<path d="M67.9997 62.667H65.333V65.3337H67.9997V62.667Z" fill="black"/>
<path d="M67.9997 65.3335H65.333V68.0002H67.9997V65.3335Z" fill="black"/>
<path d="M70.6667 33.3335H68V36.0002H70.6667V33.3335Z" fill="black"/>
<path d="M70.6667 38.667H68V41.3337H70.6667V38.667Z" fill="black"/>
<path d="M70.6667 44H68V46.6667H70.6667V44Z" fill="black"/>
<path d="M70.6667 46.667H68V49.3337H70.6667V46.667Z" fill="black"/>
<path d="M70.6667 49.3335H68V52.0002H70.6667V49.3335Z" fill="black"/>
<path d="M70.6667 52H68V54.6667H70.6667V52Z" fill="black"/>
<path d="M70.6667 54.667H68V57.3337H70.6667V54.667Z" fill="black"/>
<path d="M70.6667 62.667H68V65.3337H70.6667V62.667Z" fill="black"/>
<path d="M70.6667 65.3335H68V68.0002H70.6667V65.3335Z" fill="black"/>
<path d="M70.6667 68H68V70.6667H70.6667V68Z" fill="black"/>
<path d="M70.6667 73.3335H68V76.0002H70.6667V73.3335Z" fill="black"/>
<path d="M73.3327 22.667H70.666V25.3337H73.3327V22.667Z" fill="black"/>
<path d="M73.3327 28H70.666V30.6667H73.3327V28Z" fill="black"/>
<path d="M73.3327 30.667H70.666V33.3337H73.3327V30.667Z" fill="black"/>
<path d="M73.3327 33.3335H70.666V36.0002H73.3327V33.3335Z" fill="black"/>
<path d="M73.3327 44H70.666V46.6667H73.3327V44Z" fill="black"/>
<path d="M73.3327 57.3335H70.666V60.0002H73.3327V57.3335Z" fill="black"/>
<path d="M73.3327 65.3335H70.666V68.0002H73.3327V65.3335Z" fill="black"/>
<path d="M73.3327 73.3335H70.666V76.0002H73.3327V73.3335Z" fill="black"/>
<path d="M73.3327 76H70.666V78.6667H73.3327V76Z" fill="black"/>
<path d="M75.9997 22.667H73.333V25.3337H75.9997V22.667Z" fill="black"/>
<path d="M75.9997 28H73.333V30.6667H75.9997V28Z" fill="black"/>
<path d="M75.9997 30.667H73.333V33.3337H75.9997V30.667Z" fill="black"/>
<path d="M75.9997 33.3335H73.333V36.0002H75.9997V33.3335Z" fill="black"/>
<path d="M75.9997 38.667H73.333V41.3337H75.9997V38.667Z" fill="black"/>
<path d="M75.9997 41.3335H73.333V44.0002H75.9997V41.3335Z" fill="black"/>
<path d="M75.9997 44H73.333V46.6667H75.9997V44Z" fill="black"/>
<path d="M75.9997 54.667H73.333V57.3337H75.9997V54.667Z" fill="black"/>
<path d="M75.9997 68H73.333V70.6667H75.9997V68Z" fill="black"/>
<path d="M78.6667 36H76V38.6667H78.6667V36Z" fill="black"/>
<path d="M78.6667 44H76V46.6667H78.6667V44Z" fill="black"/>
<path d="M78.6667 54.667H76V57.3337H78.6667V54.667Z" fill="black"/>
<path d="M78.6667 62.667H76V65.3337H78.6667V62.667Z" fill="black"/>
<path d="M78.6667 65.3335H76V68.0002H78.6667V65.3335Z" fill="black"/>
<path d="M78.6667 76H76V78.6667H78.6667V76Z" fill="black"/>
<path d="M3.99967 1.3335H1.33301V4.00016H3.99967V1.3335Z" fill="black"/>
<path d="M3.99967 4H1.33301V6.66667H3.99967V4Z" fill="black"/>
<path d="M3.99967 6.66699H1.33301V9.33366H3.99967V6.66699Z" fill="black"/>
<path d="M3.99967 9.3335H1.33301V12.0002H3.99967V9.3335Z" fill="black"/>
<path d="M3.99967 12H1.33301V14.6667H3.99967V12Z" fill="black"/>
<path d="M3.99967 14.667H1.33301V17.3337H3.99967V14.667Z" fill="black"/>
<path d="M3.99967 17.3335H1.33301V20.0002H3.99967V17.3335Z" fill="black"/>
<path d="M6.66667 1.3335H4V4.00016H6.66667V1.3335Z" fill="black"/>
<path d="M6.66667 17.3335H4V20.0002H6.66667V17.3335Z" fill="black"/>
<path d="M9.33268 1.3335H6.66602V4.00016H9.33268V1.3335Z" fill="black"/>
<path d="M9.33268 17.3335H6.66602V20.0002H9.33268V17.3335Z" fill="black"/>
<path d="M11.9997 1.3335H9.33301V4.00016H11.9997V1.3335Z" fill="black"/>
<path d="M11.9997 17.3335H9.33301V20.0002H11.9997V17.3335Z" fill="black"/>
<path d="M14.6667 1.3335H12V4.00016H14.6667V1.3335Z" fill="black"/>
<path d="M14.6667 17.3335H12V20.0002H14.6667V17.3335Z" fill="black"/>
<path d="M17.3327 1.3335H14.666V4.00016H17.3327V1.3335Z" fill="black"/>
<path d="M17.3327 17.3335H14.666V20.0002H17.3327V17.3335Z" fill="black"/>
<path d="M19.9997 1.3335H17.333V4.00016H19.9997V1.3335Z" fill="black"/>
<path d="M19.9997 4H17.333V6.66667H19.9997V4Z" fill="black"/>
<path d="M19.9997 6.66699H17.333V9.33366H19.9997V6.66699Z" fill="black"/>
<path d="M19.9997 9.3335H17.333V12.0002H19.9997V9.3335Z" fill="black"/>
<path d="M19.9997 12H17.333V14.6667H19.9997V12Z" fill="black"/>
<path d="M19.9997 14.667H17.333V17.3337H19.9997V14.667Z" fill="black"/>
<path d="M19.9997 17.3335H17.333V20.0002H19.9997V17.3335Z" fill="black"/>
<path d="M9.33366 6.6665H6.66699V9.33317H9.33366V6.6665Z" fill="black"/>
<path d="M9.33366 9.33301H6.66699V11.9997H9.33366V9.33301Z" fill="black"/>
<path d="M9.33366 12H6.66699V14.6667H9.33366V12Z" fill="black"/>
<path d="M12.0007 6.6665H9.33398V9.33317H12.0007V6.6665Z" fill="black"/>
<path d="M12.0007 9.33301H9.33398V11.9997H12.0007V9.33301Z" fill="black"/>
<path d="M12.0007 12H9.33398V14.6667H12.0007V12Z" fill="black"/>
<path d="M14.6667 6.6665H12V9.33317H14.6667V6.6665Z" fill="black"/>
<path d="M14.6667 9.33301H12V11.9997H14.6667V9.33301Z" fill="black"/>
<path d="M14.6667 12H12V14.6667H14.6667V12Z" fill="black"/>
<path d="M62.6667 1.3335H60V4.00016H62.6667V1.3335Z" fill="black"/>
<path d="M62.6667 4H60V6.66667H62.6667V4Z" fill="black"/>
<path d="M62.6667 6.66699H60V9.33366H62.6667V6.66699Z" fill="black"/>
<path d="M62.6667 9.3335H60V12.0002H62.6667V9.3335Z" fill="black"/>
<path d="M62.6667 12H60V14.6667H62.6667V12Z" fill="black"/>
<path d="M62.6667 14.667H60V17.3337H62.6667V14.667Z" fill="black"/>
<path d="M62.6667 17.3335H60V20.0002H62.6667V17.3335Z" fill="black"/>
<path d="M65.3337 1.3335H62.667V4.00016H65.3337V1.3335Z" fill="black"/>
<path d="M65.3337 17.3335H62.667V20.0002H65.3337V17.3335Z" fill="black"/>
<path d="M67.9997 1.3335H65.333V4.00016H67.9997V1.3335Z" fill="black"/>
<path d="M67.9997 17.3335H65.333V20.0002H67.9997V17.3335Z" fill="black"/>
<path d="M70.6667 1.3335H68V4.00016H70.6667V1.3335Z" fill="black"/>
<path d="M70.6667 17.3335H68V20.0002H70.6667V17.3335Z" fill="black"/>
<path d="M73.3337 1.3335H70.667V4.00016H73.3337V1.3335Z" fill="black"/>
<path d="M73.3337 17.3335H70.667V20.0002H73.3337V17.3335Z" fill="black"/>
<path d="M75.9997 1.3335H73.333V4.00016H75.9997V1.3335Z" fill="black"/>
<path d="M75.9997 17.3335H73.333V20.0002H75.9997V17.3335Z" fill="black"/>
<path d="M78.6667 1.3335H76V4.00016H78.6667V1.3335Z" fill="black"/>
<path d="M78.6667 4H76V6.66667H78.6667V4Z" fill="black"/>
<path d="M78.6667 6.66699H76V9.33366H78.6667V6.66699Z" fill="black"/>
<path d="M78.6667 9.3335H76V12.0002H78.6667V9.3335Z" fill="black"/>
<path d="M78.6667 12H76V14.6667H78.6667V12Z" fill="black"/>
<path d="M78.6667 14.667H76V17.3337H78.6667V14.667Z" fill="black"/>
<path d="M78.6667 17.3335H76V20.0002H78.6667V17.3335Z" fill="black"/>
<path d="M67.9997 6.6665H65.333V9.33317H67.9997V6.6665Z" fill="black"/>
<path d="M67.9997 9.33301H65.333V11.9997H67.9997V9.33301Z" fill="black"/>
<path d="M67.9997 12H65.333V14.6667H67.9997V12Z" fill="black"/>
<path d="M70.6667 6.6665H68V9.33317H70.6667V6.6665Z" fill="black"/>
<path d="M70.6667 9.33301H68V11.9997H70.6667V9.33301Z" fill="black"/>
<path d="M70.6667 12H68V14.6667H70.6667V12Z" fill="black"/>
<path d="M73.3327 6.6665H70.666V9.33317H73.3327V6.6665Z" fill="black"/>
<path d="M73.3327 9.33301H70.666V11.9997H73.3327V9.33301Z" fill="black"/>
<path d="M73.3327 12H70.666V14.6667H73.3327V12Z" fill="black"/>
<path d="M3.99967 60H1.33301V62.6667H3.99967V60Z" fill="black"/>
<path d="M3.99967 62.6665H1.33301V65.3332H3.99967V62.6665Z" fill="black"/>
<path d="M3.99967 65.3335H1.33301V68.0002H3.99967V65.3335Z" fill="black"/>
<path d="M3.99967 68H1.33301V70.6667H3.99967V68Z" fill="black"/>
<path d="M3.99967 70.6665H1.33301V73.3332H3.99967V70.6665Z" fill="black"/>
<path d="M3.99967 73.3335H1.33301V76.0002H3.99967V73.3335Z" fill="black"/>
<path d="M3.99967 76H1.33301V78.6667H3.99967V76Z" fill="black"/>
<path d="M6.66667 60H4V62.6667H6.66667V60Z" fill="black"/>
<path d="M6.66667 76H4V78.6667H6.66667V76Z" fill="black"/>
<path d="M9.33268 60H6.66602V62.6667H9.33268V60Z" fill="black"/>
<path d="M9.33268 76H6.66602V78.6667H9.33268V76Z" fill="black"/>
<path d="M11.9997 60H9.33301V62.6667H11.9997V60Z" fill="black"/>
<path d="M11.9997 76H9.33301V78.6667H11.9997V76Z" fill="black"/>
<path d="M14.6667 60H12V62.6667H14.6667V60Z" fill="black"/>
<path d="M14.6667 76H12V78.6667H14.6667V76Z" fill="black"/>
<path d="M17.3327 60H14.666V62.6667H17.3327V60Z" fill="black"/>
<path d="M17.3327 76H14.666V78.6667H17.3327V76Z" fill="black"/>
<path d="M19.9997 60H17.333V62.6667H19.9997V60Z" fill="black"/>
<path d="M19.9997 62.6665H17.333V65.3332H19.9997V62.6665Z" fill="black"/>
<path d="M19.9997 65.3335H17.333V68.0002H19.9997V65.3335Z" fill="black"/>
<path d="M19.9997 68H17.333V70.6667H19.9997V68Z" fill="black"/>
<path d="M19.9997 70.6665H17.333V73.3332H19.9997V70.6665Z" fill="black"/>
<path d="M19.9997 73.3335H17.333V76.0002H19.9997V73.3335Z" fill="black"/>
<path d="M19.9997 76H17.333V78.6667H19.9997V76Z" fill="black"/>
<path d="M9.33366 65.3335H6.66699V68.0002H9.33366V65.3335Z" fill="black"/>
<path d="M9.33366 68H6.66699V70.6667H9.33366V68Z" fill="black"/>
<path d="M9.33366 70.667H6.66699V73.3337H9.33366V70.667Z" fill="black"/>
<path d="M12.0007 65.3335H9.33398V68.0002H12.0007V65.3335Z" fill="black"/>
<path d="M12.0007 68H9.33398V70.6667H12.0007V68Z" fill="black"/>
<path d="M12.0007 70.667H9.33398V73.3337H12.0007V70.667Z" fill="black"/>
<path d="M14.6667 65.3335H12V68.0002H14.6667V65.3335Z" fill="black"/>
<path d="M14.6667 68H12V70.6667H14.6667V68Z" fill="black"/>
<path d="M14.6667 70.667H12V73.3337H14.6667V70.667Z" fill="black"/>
</svg>
