<svg width="99" height="41" viewBox="0 0 99 41" fill="none" xmlns="http://www.w3.org/2000/svg">
<path d="M34.1685 27.7719V28.6317H30.0758V31.1424H33.9966V31.9678H30.0758V34.9599H29.1816V27.7719H34.1685Z" fill="#F6A32D"/>
<path d="M39.707 27.7718H40.6012V34.9598H39.707V27.7718Z" fill="#F6A32D"/>
<path d="M47.2402 27.7718L51.6424 33.2746V27.7718H52.5194V34.9598H51.9175L47.4981 29.4742V34.9598H46.6211V27.7718H47.2402Z" fill="#F6A32D"/>
<path d="M61.992 27.7718L65.2076 34.9598H64.2447L63.5396 33.3777H59.4297L58.7247 34.9598H57.7617L60.9774 27.7718H61.992ZM61.4933 28.666L59.7909 32.5523H63.1957L61.4933 28.666Z" fill="#F6A32D"/>
<path d="M71.0718 27.7718L75.474 33.2746V27.7718H76.351V34.9598H75.732L71.3125 29.4742V34.9598H70.4355V27.7718H71.0718Z" fill="#F6A32D"/>
<path d="M85.6892 35.063C84.4855 35.063 83.5741 34.7019 82.9206 33.9968C82.2672 33.2918 81.9404 32.4148 81.9404 31.4002C81.9404 30.7467 82.0608 30.1449 82.3359 29.5774C82.6111 29.0271 83.0238 28.5628 83.6085 28.2017C84.1931 27.8406 84.881 27.6514 85.6892 27.6514C86.7038 27.6514 87.5808 28.0125 88.3202 28.7348L87.7011 29.3023C87.1681 28.7692 86.4974 28.494 85.6892 28.494C84.7778 28.494 84.0728 28.7692 83.5741 29.3366C83.0754 29.9041 82.8346 30.5748 82.8346 31.383C82.8518 32.174 83.0926 32.8447 83.5913 33.3949C84.0728 33.9452 84.7778 34.2032 85.6892 34.2032C86.4974 34.2032 87.1853 33.928 87.7355 33.3777L88.3546 33.9968C87.6496 34.719 86.7554 35.063 85.6892 35.063Z" fill="#F6A32D"/>
<path d="M93.7715 27.7718H98.8271V28.5972H94.6657V30.8327H98.6552V31.6581H94.6657V34.1H98.9991V34.9598H93.7887V27.7718H93.7715Z" fill="#F6A32D"/>
<path d="M31.1424 12.8282V21.6843H36.6452V23.5587H29.1133V12.8454H31.1424V12.8282Z" fill="#002993"/>
<path d="M45.6895 21.5123H40.0836L39.1722 23.5414H36.9883L41.8032 12.8282H44.0043L48.8192 23.5414H46.5837L45.6895 21.5123ZM42.8866 15.0809L40.8918 19.6379H44.8641L42.8866 15.0809Z" fill="#002993"/>
<path d="M56.7638 12.8112H58.793V23.5416H57.5377V23.5588L51.8973 16.3192V23.5416H49.8682V12.8284H51.5018L56.7466 19.4661V12.8112H56.7638Z" fill="#002993"/>
<path d="M78.0378 12.8282V14.6682H65.4158V23.5414H63.4039V14.6682H59.999V12.8282H78.0378Z" fill="#002993"/>
<path d="M72.0178 21.5468V19.1393H77.8129V17.2477H70.0059V23.5415H78.0193V21.5468H72.0178Z" fill="#002993"/>
<path d="M89.0915 23.5416H86.684L83.5543 19.9648H81.6112V23.5416H79.582V12.8112C81.2845 12.8112 82.9869 12.8284 84.6721 12.8284C87.1999 12.8456 88.524 14.5308 88.524 16.388C88.524 17.8497 87.8534 19.3458 85.807 19.7585L89.0571 23.4212V23.5416H89.0915ZM81.6284 14.7028V18.1248H84.7065C85.9962 18.1248 86.5465 17.265 86.5465 16.4052C86.5465 15.5454 85.979 14.6856 84.7065 14.6856H81.6284V14.7028Z" fill="#002993"/>
<path d="M96.9699 12.8112H98.999V23.5416H97.7437V23.5588L92.1034 16.3192V23.5416H90.0742V12.8284H91.7079L96.9527 19.4661V12.8112H96.9699Z" fill="#002993"/>
<path d="M21.9595 11.487C20.9277 10.9883 19.6208 10.5068 17.9528 10.1457C17.3509 10.0254 16.6975 9.90498 15.9924 9.819C16.1644 9.49227 16.2504 9.13115 16.2504 8.73564C16.2504 8.40891 16.1816 8.08219 16.044 7.78985C17.2305 6.98163 17.97 5.7779 17.97 4.41941C17.97 1.99475 15.5109 0 12.4844 0C9.45788 0 6.99883 1.97755 6.99883 4.41941C6.99883 5.76071 7.75546 6.96444 8.9248 7.77266C8.78723 8.06499 8.71845 8.39172 8.71845 8.71844C8.71845 9.09676 8.80443 9.45788 8.97639 9.78461C8.27135 9.87059 7.61789 9.97376 7.01603 10.0941C5.33081 10.4381 4.0239 10.9368 2.99213 11.4354C0.825414 12.4844 0 13.6021 0 13.6021L1.42728 14.2728L1.58205 14.3416V30.7295L1.85718 30.8671L4.35062 32.0536L4.53978 32.1396L12.2609 35.8024L12.4672 35.9056L12.6736 35.8024L20.4806 32.1052L20.5838 32.0536L22.9913 30.9187H23.3696V14.3416L23.5243 14.2728L24.9516 13.6021C24.9516 13.6537 24.1262 12.5532 21.9595 11.487ZM8.08219 4.4538C8.08219 2.59662 10.0597 1.10055 12.5016 1.10055C14.9435 1.10055 16.921 2.61381 16.921 4.4538C16.921 5.45118 16.3535 6.34538 15.4421 6.94724C14.7543 6.2594 13.6881 5.82949 12.4844 5.82949C11.2807 5.82949 10.2145 6.27659 9.52667 6.94724C8.64966 6.32818 8.08219 5.43398 8.08219 4.4538ZM19.9131 28.6144L16.302 30.334L12.4844 32.1396L8.68406 30.3168L5.07287 28.5972V16.044L7.65229 17.2649L12.5016 19.5692L17.3509 17.2649L19.9303 16.044V28.6144H19.9131Z" fill="url(#paint0_linear_228_195)"/>
<path d="M12.4848 36.817L4.97007 33.2402L4.28223 32.9135V33.6873V36.4387V36.7482L4.55737 36.8858L12.2784 40.5486L12.4848 40.6517L12.6911 40.5486L20.4982 36.8514L20.7733 36.7138V36.4043V33.6529V32.8791L20.0855 33.2058L12.4848 36.817Z" fill="url(#paint1_linear_228_195)"/>
<defs>
<linearGradient id="paint0_linear_228_195" x1="12.4902" y1="0.0361291" x2="12.4902" y2="35.9658" gradientUnits="userSpaceOnUse">
<stop offset="3.35651e-07" stop-color="#EB523B"/>
<stop offset="1" stop-color="#FEDE23"/>
</linearGradient>
<linearGradient id="paint1_linear_228_195" x1="12.5281" y1="-0.0991395" x2="12.5281" y2="40.3677" gradientUnits="userSpaceOnUse">
<stop offset="3.35651e-07" stop-color="#EB523B"/>
<stop offset="1" stop-color="#FEDE23"/>
</linearGradient>
</defs>
</svg>
